<svg height="481pt" viewBox="0 0 481 481.6" width="481pt" xmlns="http://www.w3.org/2000/svg"><path d="m232.300781 201.601562h32v16h-32zm0 0"/><path d="m328.300781 201.601562h32v16h-32zm0 0"/><path d="m328.300781 265.601562h32v16h-32zm0 0"/><path d="m232.300781 265.601562h32v16h-32zm0 0"/><path d="m232.300781 329.601562h32v16h-32zm0 0"/><path d="m328.300781 329.601562h32v16h-32zm0 0"/><path d="m320.300781 433.601562h16v16h-16zm0 0"/><path d="m456.300781 124.800781-216-124.800781-216 124.800781v196.800781h16v-187.203124l200-115.199219 200 115.199219v331.203124h-80c4-4.800781 6.398438-10.402343 7.199219-16h32.800781c13.597657 0 24-10.402343 24-24v-40c0-13.601562-10.402343-24-24-24v-168c0-12.800781-10.402343-24-23.199219-24h-161.601562c-12.800781 0-23.199219 11.199219-23.199219 24v168h-16v-136h-16v16h-38.402343c-8.796876 0-16.796876 4.796876-20.796876 12.796876l-57.601562 108c-2.398438 3.203124-3.199219 7.203124-3.199219 11.203124v52c0 13.597657 10.398438 24 24 24h16.800781c1.597657 5.597657 4 11.199219 7.199219 16h-88v16h480v-16h-24zm-296.800781 324.800781h129.601562c1.597657 5.597657 4 11.199219 7.199219 16h-144c3.199219-4.800781 5.597657-10.402343 7.199219-16zm144.800781-8c0-13.601562 10.398438-24 24-24 13.597657 0 24 10.398438 24 24 0 13.597657-10.402343 24-24 24-13.601562 0-24-10.402343-24-24zm0-80v-48h80v48zm0-112h80v48h-80zm-16 48h-80v-48h80zm96-104v40h-80v-48h72.800781c4 0 7.199219 4 7.199219 8zm-168.800781-8h72.800781v48h-80v-40c0-4 3.199219-8 7.199219-8zm-7.199219 128h80v48h-80zm-93.601562-52c1.601562-2.402343 4-4 7.199219-4h38.402343v104h-98.402343zm-58.398438 164v-48h344c4.800781 0 8 3.199219 8 8v40c0 4.796876-3.199219 8-8 8h-32.800781c-4.800781-21.601562-25.601562-36-47.199219-31.203124-16 3.203124-28 15.203124-31.199219 31.203124h-129.601562c-4.800781-21.601562-25.601562-36-47.199219-31.203124-16 3.203124-28 15.203124-31.199219 31.203124h-16.800781c-4.800781 0-8-3.203124-8-8zm40 16c0-13.601562 10.398438-24 24-24 13.597657 0 24 10.398438 24 24 0 13.597657-10.402343 24-24 24-13.601562 0-24-10.402343-24-24zm0 0"/><path d="m112.300781 433.601562h16v16h-16zm0 0"/><path d="m288.300781 76.800781-48-28.800781-48 28.800781v68.800781h96zm-80 9.597657 24-14.398438v57.601562h-24zm64 43.203124h-24v-57.601562l24 14.398438zm0 0"/></svg>